<?xml version="1.0" standalone="no"?>
<!DOCTYPE svg PUBLIC "-//W3C//DTD SVG 20010904//EN"
 "http://www.w3.org/TR/2001/REC-SVG-20010904/DTD/svg10.dtd">
<svg version="1.0" xmlns="http://www.w3.org/2000/svg"
 width="512.000000pt" height="512.000000pt" viewBox="0 0 512.000000 512.000000"
 preserveAspectRatio="xMidYMid meet">

<g transform="translate(0.000000,512.000000) scale(0.100000,-0.100000)"
fill="#fb6161" stroke="none">
<path d="M2331 4399 c-87 -10 -202 -36 -308 -70 -35 -11 -68 -17 -74 -13 -7 4
-9 3 -6 -3 3 -5 -20 -20 -51 -33 -370 -148 -749 -514 -949 -916 -135 -270
-201 -542 -210 -869 -12 -398 50 -707 202 -1021 173 -356 486 -692 813 -871
324 -179 731 -244 1114 -179 182 31 298 69 473 156 173 86 295 173 441 312
183 176 311 352 425 583 153 310 219 633 206 1010 -18 542 -205 1000 -561
1372 -244 256 -520 420 -846 503 -188 47 -443 62 -669 39z m-382 -1177 c15
-111 31 -205 34 -209 4 -3 98 -19 209 -34 111 -16 205 -30 209 -31 3 -2 -77
-43 -180 -93 -102 -49 -190 -92 -194 -96 -5 -3 8 -97 28 -209 20 -111 34 -204
32 -206 -2 -3 -70 63 -150 146 l-146 151 -194 -103 -193 -104 104 193 103 194
-151 146 c-83 80 -149 148 -146 150 2 2 95 -12 206 -32 112 -20 206 -33 209
-28 4 4 47 92 96 194 50 103 91 183 93 180 1 -4 15 -98 31 -209z m1570 -40
c15 -111 31 -205 34 -209 4 -3 98 -19 209 -34 111 -16 205 -30 209 -31 3 -2
-77 -43 -180 -93 -102 -49 -190 -92 -194 -96 -5 -3 8 -97 28 -209 20 -111 34
-204 32 -206 -2 -3 -70 63 -150 146 l-146 151 -194 -103 -193 -104 104 193
103 194 -151 146 c-83 80 -149 148 -146 150 2 2 95 -12 206 -32 112 -20 206
-33 209 -28 4 4 47 92 96 194 50 103 91 183 93 180 1 -4 15 -98 31 -209z
m-222 -1543 c138 -45 204 -213 137 -347 -50 -101 -112 -129 -296 -136 -73 -2
-145 -7 -158 -11 -14 -3 -111 -7 -215 -8 -105 -2 -195 -6 -201 -9 -16 -10
-236 -21 -389 -20 -292 2 -430 60 -476 199 -19 60 -8 154 27 209 61 99 167
133 318 101 50 -11 112 -14 225 -11 86 2 166 5 178 8 64 13 126 18 303 22 107
2 227 7 265 11 90 10 241 6 282 -8z"/>
</g>
</svg>
